<svg xmlns="http://www.w3.org/2000/svg" width="20" height="14" viewBox="0 0 20 14">
  <rect width="20" height="14" fill="#FFF"/>
  <rect y="3.5" width="20" height="3.5" fill="#FF9933"/>
  <rect y="7" width="20" height="3.5" fill="white"/>
  <rect y="10.5" width="20" height="3.5" fill="#138808"/>
  <circle cx="10" cy="7" r="1.8" fill="none" stroke="#000080" stroke-width="0.9"/>
  <circle cx="10" cy="7" r="0.6" fill="#000080"/>
  <g stroke="#000080" stroke-width="0.25">
    <line x1="10" y1="5.2" x2="10" y2="4.1"/>
    <line x1="10" y1="8.8" x2="10" y2="9.9"/>
    <line x1="8.2" y1="7" x2="7.1" y2="7"/>
    <line x1="11.8" y1="7" x2="12.9" y2="7"/>
    <line x1="8.73" y1="5.73" x2="7.98" y2="4.98"/>
    <line x1="11.27" y1="8.27" x2="12.02" y2="9.02"/>
    <line x1="8.73" y1="8.27" x2="7.98" y2="9.02"/>
    <line x1="11.27" y1="5.73" x2="12.02" y2="4.98"/>
    <line x1="9.05" y1="5.1" x2="8.45" y2="4.25"/>
    <line x1="10.95" y1="8.9" x2="11.55" y2="9.75"/>
    <line x1="9.05" y1="8.9" x2="8.45" y2="9.75"/>
    <line x1="10.95" y1="5.1" x2="11.55" y2="4.25"/>
    <line x1="9.5" y1="5.05" x2="9.1" y2="4.05"/>
    <line x1="10.5" y1="8.95" x2="10.9" y2="9.95"/>
    <line x1="9.5" y1="8.95" x2="9.1" y2="9.95"/>
    <line x1="10.5" y1="5.05" x2="10.9" y2="4.05"/>
    <line x1="9.85" y1="5.05" x2="9.65" y2="3.95"/>
    <line x1="10.15" y1="8.95" x2="10.35" y2="10.05"/>
    <line x1="9.85" y1="8.95" x2="9.65" y2="10.05"/>
    <line x1="10.15" y1="5.05" x2="10.35" y2="3.95"/>
    <line x1="10.1" y1="5.15" x2="10.35" y2="4.15"/>
    <line x1="9.9" y1="8.85" x2="9.65" y2="9.85"/>
    <line x1="9.9" y1="5.15" x2="9.65" y2="4.15"/>
    <line x1="10.1" y1="8.85" x2="10.35" y2="9.85"/>
    <line x1="10.25" y1="5.3" x2="10.55" y2="4.45"/>
    <line x1="9.75" y1="8.7" x2="9.45" y2="9.55"/>
    <line x1="9.75" y1="5.3" x2="9.45" y2="4.45"/>
    <line x1="10.25" y1="8.7" x2="10.55" y2="9.55"/>
    <line x1="10.35" y1="5.5" x2="10.7" y2="4.8"/>
    <line x1="9.65" y1="8.5" x2="9.3" y2="9.2"/>
    <line x1="9.65" y1="5.5" x2="9.3" y2="4.8"/>
    <line x1="10.35" y1="8.5" x2="10.7" y2="9.2"/>
    <line x1="10.4" y1="5.75" x2="10.7" y2="5.2"/>
    <line x1="9.6" y1="8.25" x2="9.3" y2="8.8"/>
    <line x1="9.6" y1="5.75" x2="9.3" y2="5.2"/>
    <line x1="10.4" y1="8.25" x2="10.7" y2="8.8"/>
    <line x1="10.4" y1="6.05" x2="10.65" y2="5.6"/>
    <line x1="9.6" y1="7.95" x2="9.35" y2="8.4"/>
    <line x1="9.6" y1="6.05" x2="9.35" y2="5.6"/>
    <line x1="10.4" y1="7.95" x2="10.65" y2="8.4"/>
    <line x1="10.35" y1="6.4" x2="10.55" y2="6.05"/>
    <line x1="9.65" y1="7.6" x2="9.45" y2="7.95"/>
    <line x1="9.65" y1="6.4" x2="9.45" y2="6.05"/>
    <line x1="10.35" y1="7.6" x2="10.55" y2="7.95"/>
    <line x1="10.2" y1="6.75" x2="10.3" y2="6.55"/>
    <line x1="9.8" y1="7.25" x2="9.7" y2="7.45"/>
    <line x1="9.8" y1="6.75" x2="9.7" y2="6.55"/>
    <line x1="10.2" y1="7.25" x2="10.3" y2="7.45"/>
  </g>
</svg>
